<svg xmlns="http://www.w3.org/2000/svg" viewBox="0 0 257.01 367.4"><defs><style>.cls-1{fill:none;stroke:#ffcf01;stroke-miterlimit:10;stroke-width:0.7px;}</style></defs><title>face-side</title><g id="Layer_2" data-name="Layer 2"><g id="Layer_1-2" data-name="Layer 1"><polygon class="cls-1" points="1.72 176.63 0.37 181.29 1.92 185.7 4.6 184.7 7.86 183.76 16.89 177.94 28.71 142.52 15.74 160.03 1.72 176.63"/><polygon class="cls-1" points="1.92 185.7 2.29 186.76 10.55 192.16 17.47 194.98 12.38 188.11 4.6 184.7 1.92 185.7"/><polygon class="cls-1" points="4.6 184.7 12.38 188.11 18.8 190.92 7.86 183.76 4.6 184.7"/><polygon class="cls-1" points="18.8 190.92 24.96 194.96 28.71 191.66 25.35 179.73 16.89 177.94 7.86 183.76 18.8 190.92"/><polygon class="cls-1" points="12.38 188.11 17.47 194.98 24.96 194.96 18.8 190.92 12.38 188.11"/><polygon class="cls-1" points="18.08 27.52 14.59 75.56 35.77 87.76 18.08 27.52"/><polygon class="cls-1" points="14.59 75.56 24.05 87.76 35.77 87.76 14.59 75.56"/><polygon class="cls-1" points="15.74 212.75 15.16 216.88 19.92 223.51 30.78 225.41 25.42 220.9 15.74 212.75"/><polygon class="cls-1" points="24.96 141.85 15.74 160.03 28.71 142.52 24.96 141.85"/><polygon class="cls-1" points="17.86 205.28 15.74 212.75 25.42 220.9 24.96 194.96 21.65 202.62 17.86 205.28"/><polygon class="cls-1" points="28.71 142.52 16.89 177.94 25.35 179.73 27.31 158.06 28.71 142.52"/><polygon class="cls-1" points="17.47 194.98 17.86 205.28 21.65 202.62 24.96 194.96 17.47 194.98"/><polygon class="cls-1" points="18.08 27.52 35.77 87.76 78.28 74.67 18.08 27.52"/><polygon class="cls-1" points="18.08 27.52 78.28 74.67 155.31 54.62 18.08 27.52"/><polygon class="cls-1" points="18.08 27.52 155.31 54.62 66.77 25.76 51.81 20.89 51.81 20.89 35.59 15.61 18.08 27.52"/><polygon class="cls-1" points="20.79 131.04 20.35 134.45 32.03 131.86 27.31 127.44 20.79 131.04"/><polygon class="cls-1" points="20.35 134.45 24.96 141.85 28.71 142.52 33.51 142.52 34.76 139.54 37.76 136.97 32.03 131.86 20.35 134.45"/><polygon class="cls-1" points="23.38 110.96 20.79 131.04 27.31 127.44 29.67 112.45 43.01 94.2 35.77 87.76 23.38 110.96"/><polygon class="cls-1" points="21.12 231.85 28.42 243.88 29.71 236.36 21.12 231.85"/><polygon class="cls-1" points="21.12 231.85 29.71 236.36 31.5 226.01 25.93 230.82 21.12 231.85"/><polygon class="cls-1" points="24.96 194.96 25.42 220.9 30.78 225.41 30.79 225.41 31.5 226.01 28.71 191.66 24.96 194.96"/><polygon class="cls-1" points="25.35 179.73 28.71 191.66 31.5 226.01 44.95 247.57 39.75 224.46 33.51 196.74 28.71 190.93 32.03 176.68 36.42 152.9 34.64 148.95 35.12 148.68 33.51 145.69 33.51 142.52 27.31 158.06 25.35 179.73"/><polygon class="cls-1" points="28.71 142.52 27.31 158.06 33.51 142.52 28.71 142.52"/><polygon class="cls-1" points="29.67 112.45 27.31 127.44 52.85 102.96 43.01 94.2 29.67 112.45"/><polygon class="cls-1" points="28.42 243.88 27.31 258.29 41.1 270.2 67.55 259.52 44.95 247.57 31.5 226.01 29.71 236.36 28.42 243.88"/><polygon class="cls-1" points="27.31 258.29 36.68 273.66 41.1 270.2 27.31 258.29"/><polygon class="cls-1" points="27.31 127.44 32.03 131.86 35.77 127.44 27.31 127.44"/><polygon class="cls-1" points="27.31 127.44 35.77 127.44 46.8 135.6 32.03 131.86 37.76 136.97 43.99 142.52 49.61 148.49 65.89 114.56 58.02 107.56 58.01 107.56 52.85 102.96 27.31 127.44"/><polygon class="cls-1" points="32.03 176.68 28.71 190.93 33.51 196.74 42.26 170.53 49.61 148.49 32.03 176.68"/><polygon class="cls-1" points="35.77 127.44 32.03 131.86 46.8 135.6 35.77 127.44"/><polygon class="cls-1" points="36.42 152.9 32.03 176.68 49.61 148.49 43.99 150.37 36.42 152.9"/><polygon class="cls-1" points="33.51 142.52 33.51 145.69 35.05 145.12 35.05 143.1 33.51 142.52"/><polygon class="cls-1" points="34.76 139.54 33.51 142.52 35.05 143.1 35.05 145.12 33.51 145.69 35.12 148.68 42.26 144.68 34.76 139.54"/><polygon class="cls-1" points="42.26 170.53 33.51 196.74 88.72 139.93 67.01 144.68 42.26 170.53"/><polygon class="cls-1" points="88.72 139.93 33.51 196.74 110.09 160.03 86.07 158.11 88.72 139.93"/><polygon class="cls-1" points="33.51 196.74 39.75 224.46 76.84 220.2 117.05 197.57 110.09 160.03 33.51 196.74"/><polygon class="cls-1" points="34.64 148.95 36.42 152.9 43.99 150.37 42.26 144.68 35.12 148.68 34.64 148.95"/><polygon class="cls-1" points="34.76 139.54 42.26 144.68 49.61 148.49 43.99 142.52 37.76 136.97 34.76 139.54"/><polygon class="cls-1" points="35.59 15.61 51.81 20.89 51.81 20.89 170.69 10.68 157.4 0.62 35.59 15.61"/><polygon class="cls-1" points="35.77 87.76 43.01 94.2 52.85 102.96 58.01 107.56 78.28 74.67 35.77 87.76"/><polygon class="cls-1" points="36.68 273.66 51.09 277.12 77.03 279.01 79.44 270.2 41.1 270.2 36.68 273.66"/><polygon class="cls-1" points="39.75 224.46 44.95 247.57 81.67 251.93 39.75 224.46"/><polygon class="cls-1" points="39.75 224.46 81.67 251.93 117.05 197.57 76.84 220.2 39.75 224.46"/><polygon class="cls-1" points="41.1 270.2 79.44 270.2 69.56 260.58 67.55 259.52 41.1 270.2"/><polygon class="cls-1" points="49.61 148.49 42.26 170.53 67.01 144.68 49.61 148.49"/><polygon class="cls-1" points="42.26 144.68 43.99 150.37 49.61 148.49 42.26 144.68"/><polygon class="cls-1" points="44.95 247.57 67.55 259.52 68.2 259.25 81.67 251.93 44.95 247.57"/><polygon class="cls-1" points="65.89 114.56 49.61 148.49 67.01 144.68 88.72 139.93 76.84 115.72 65.89 114.56"/><polygon class="cls-1" points="51.81 20.89 66.77 25.76 186.08 22.33 170.69 10.68 51.81 20.89"/><polygon class="cls-1" points="78.28 74.67 58.01 107.56 58.02 107.56 118.79 96.8 78.28 74.67"/><polygon class="cls-1" points="58.02 107.56 65.89 114.56 76.84 115.72 110.06 114.52 58.02 107.56"/><polygon class="cls-1" points="58.02 107.56 110.06 114.52 110.09 114.52 110.09 114.53 153.22 120.3 153.22 120.31 164.61 121.83 118.79 96.8 118.79 96.8 58.02 107.56"/><polygon class="cls-1" points="66.77 25.76 155.31 54.62 186.08 22.33 66.77 25.76"/><polygon class="cls-1" points="68.2 259.25 69.56 260.58 79.44 270.2 107.11 303.14 107.11 256.36 68.2 259.25"/><polygon class="cls-1" points="68.2 259.25 107.11 256.36 117.05 280.87 117.83 256.36 118.62 231.85 81.67 251.93 68.2 259.25"/><polygon class="cls-1" points="76.84 115.72 88.72 139.93 110.09 160.03 125.84 144.68 110.09 114.53 110.06 114.52 76.84 115.72"/><polygon class="cls-1" points="79.44 270.2 77.03 279.01 88.72 288.65 93.75 298.64 105.09 307.86 79.44 270.2"/><polygon class="cls-1" points="78.28 74.67 118.79 96.8 118.79 96.8 164.61 121.83 159.3 83.44 78.28 74.67"/><polygon class="cls-1" points="78.28 74.67 159.3 83.44 155.31 54.62 78.28 74.67"/><polygon class="cls-1" points="107.11 303.14 79.44 270.2 105.09 307.86 119.43 330.54 119.64 332.3 119.93 334.58 115.75 354.51 135.06 352.35 127.14 326.98 117.05 314.98 107.11 303.14"/><polygon class="cls-1" points="117.05 197.57 81.67 251.93 118.62 231.85 119.43 216.13 117.05 197.57"/><polygon class="cls-1" points="88.72 139.93 86.07 158.11 110.09 160.03 88.72 139.93"/><polygon class="cls-1" points="107.11 256.36 107.11 303.14 117.05 314.98 117.05 295.57 117.05 280.87 107.11 256.36"/><polygon class="cls-1" points="110.09 160.03 117.05 197.57 122.81 186.76 133.91 171.49 127.14 157.08 129.01 148 125.84 144.68 110.09 160.03"/><polygon class="cls-1" points="114.6 339.67 110.09 361.57 139.61 357.8 186.47 330.44 221.53 298.59 227.01 289.04 228.99 275.48 220.19 272.12 222.87 277.89 221.53 286.73 215.67 295.57 188.39 319.63 162.16 337.94 153.22 343.7 135.06 352.35 115.75 354.51 119.93 334.58 119.64 332.3 114.6 339.67"/><polygon class="cls-1" points="110.09 114.53 125.84 144.68 135.06 138.39 151.4 135.6 168.31 148.57 153.22 120.31 153.22 120.3 110.09 114.53"/><polygon class="cls-1" points="110.09 361.57 126.57 367.05 153.89 365.89 139.61 357.8 110.09 361.57"/><polygon class="cls-1" points="117.05 295.57 117.05 314.98 127.14 326.98 135.06 352.35 153.22 343.7 117.05 295.57"/><polygon class="cls-1" points="117.05 280.87 117.05 295.57 153.22 343.7 162.16 337.94 146.36 317.94 117.05 280.87"/><polygon class="cls-1" points="122.81 186.76 117.05 197.57 129.59 207.95 135.47 191.47 127.28 194.98 122.81 186.76"/><polygon class="cls-1" points="117.05 197.57 119.43 216.13 129.73 218.32 144.58 202.62 129.59 207.95 117.05 197.57"/><polygon class="cls-1" points="117.83 256.36 117.05 280.87 172.34 247.57 150.13 251.15 117.83 256.36"/><polygon class="cls-1" points="117.05 280.87 146.36 317.94 172.34 247.57 117.05 280.87"/><polygon class="cls-1" points="118.62 231.85 117.83 256.36 150.13 251.15 158.12 196.28 150.13 207.66 129.73 218.32 119.43 216.13 118.62 231.85"/><polygon class="cls-1" points="133.91 171.49 122.81 186.76 135.69 190.87 136.36 191.09 147.31 184.7 133.91 171.49"/><polygon class="cls-1" points="122.81 186.76 127.28 194.98 135.47 191.47 135.69 190.87 122.81 186.76"/><polygon class="cls-1" points="125.84 144.68 129.01 148 141.84 139.93 153.08 143.96 164.75 163.71 177.69 167.38 168.31 148.57 151.4 135.6 135.06 138.39 125.84 144.68"/><polygon class="cls-1" points="129.01 148 127.14 157.08 134.78 162.99 134.06 155.64 140.11 149.44 151.49 150.88 157.4 164.28 153.22 190.87 144.58 202.62 129.73 218.32 150.13 207.66 158.12 196.28 164.75 163.71 153.08 143.96 141.84 139.93 129.01 148"/><polygon class="cls-1" points="127.14 157.08 133.91 171.49 147.31 184.7 148.75 179.13 134.78 162.99 127.14 157.08"/><polygon class="cls-1" points="135.47 191.47 129.59 207.95 144.58 202.62 143.57 190.87 136.36 191.09 135.47 191.47"/><polygon class="cls-1" points="140.11 149.44 134.06 155.64 148.75 179.13 140.11 149.44"/><polygon class="cls-1" points="134.06 155.64 134.78 162.99 148.75 179.13 134.06 155.64"/><polygon class="cls-1" points="136.36 191.09 143.57 190.87 147.31 184.7 136.36 191.09"/><polygon class="cls-1" points="139.61 357.8 153.89 365.89 196.76 342.26 186.47 330.44 139.61 357.8"/><polygon class="cls-1" points="140.11 149.44 148.75 179.13 157.4 164.28 151.49 150.88 140.11 149.44"/><polygon class="cls-1" points="147.31 184.7 143.57 190.87 144.58 202.62 153.22 190.87 157.4 164.28 148.75 179.13 147.31 184.7"/><polygon class="cls-1" points="172.34 247.57 146.36 317.94 162.16 337.94 188.39 319.63 182.78 242.02 172.34 247.57"/><polygon class="cls-1" points="158.12 196.28 150.13 251.15 172.34 247.57 180.83 194.98 178.49 168.98 177.69 167.38 177.69 167.38 164.75 163.71 158.12 196.28"/><polygon class="cls-1" points="153.22 120.31 168.31 148.57 164.61 121.83 153.22 120.31"/><polygon class="cls-1" points="186.08 22.33 155.31 54.62 215.77 66.43 186.08 22.33"/><polygon class="cls-1" points="155.31 54.62 159.3 83.44 164.61 121.83 168.31 148.57 177.69 167.38 177.69 167.38 178.49 168.98 180.83 112.26 155.31 54.62"/><polygon class="cls-1" points="155.31 54.62 180.83 112.26 215.77 66.43 155.31 54.62"/><polygon class="cls-1" points="157.4 0.62 170.69 10.68 186.08 22.33 202.32 9.08 157.4 0.62"/><polygon class="cls-1" points="180.83 194.98 172.34 247.57 186.47 206.17 180.83 194.98"/><polygon class="cls-1" points="186.47 206.17 172.34 247.57 182.78 242.02 182.78 242.01 194.44 235.81 196.13 225.37 186.47 206.17"/><polygon class="cls-1" points="180.83 112.26 178.49 168.98 180.83 194.98 232.77 98.25 180.83 112.26"/><polygon class="cls-1" points="215.77 66.43 180.83 112.26 232.77 98.25 215.77 66.43"/><polygon class="cls-1" points="232.77 98.25 180.83 194.98 234.98 181.91 232.77 98.25"/><polygon class="cls-1" points="196.13 225.37 196.36 225.82 234.98 181.91 180.83 194.98 186.47 206.17 196.13 225.37"/><polygon class="cls-1" points="182.78 242.01 182.78 242.02 188.39 319.63 194.44 235.81 182.78 242.01"/><polygon class="cls-1" points="186.08 22.33 215.77 66.43 212.6 32.71 186.08 22.33"/><polygon class="cls-1" points="186.08 22.33 212.6 32.71 202.32 9.08 186.08 22.33"/><polygon class="cls-1" points="186.47 330.44 196.76 342.26 228.99 313.44 221.53 298.59 186.47 330.44"/><polygon class="cls-1" points="221.53 286.73 222.87 277.89 220.19 272.12 211.54 257.81 207.7 239.27 194.44 235.81 188.39 319.63 215.67 295.57 221.53 286.73"/><polygon class="cls-1" points="196.13 225.37 194.44 235.81 207.7 239.27 207.89 229.28 196.36 225.82 196.13 225.37"/><polygon class="cls-1" points="234.98 181.91 196.36 225.82 207.89 229.28 234.98 181.91"/><polygon class="cls-1" points="202.32 9.08 212.6 32.71 241.9 34.83 219.22 24.45 202.32 9.08"/><polygon class="cls-1" points="212.6 32.71 215.77 66.43 241.9 34.83 212.6 32.71"/><polygon class="cls-1" points="241.9 34.83 215.77 66.43 232.77 98.25 256.53 109.38 241.9 34.83"/><polygon class="cls-1" points="227.01 289.04 221.53 298.59 228.99 313.44 232.77 305.49 234.98 291.15 228.99 275.48 227.01 289.04"/><polygon class="cls-1" points="232.77 98.25 234.98 181.91 256.53 109.38 232.77 98.25"/></g></g></svg>