<svg xmlns="http://www.w3.org/2000/svg" viewBox="0 0 221.45 373.59"><defs><style>.cls-1{fill:none;stroke:#a6a8ab;stroke-miterlimit:10;stroke-width:0.7px;}</style></defs><title>face-front</title><g id="Layer_2" data-name="Layer 2"><g id="Layer_1-2" data-name="Layer 1"><polygon class="cls-1" points="110.73 226.86 127.94 219.58 126.41 210.86 110.73 206.24 110.73 226.86"/><polyline class="cls-1" points="110.73 206.24 110.73 160.11 119.33 164.89 130.3 202.33 126.41 210.86"/><polygon class="cls-1" points="119.33 164.89 126.41 158.45 130.3 202.33 119.33 164.89"/><polyline class="cls-1" points="119.33 225.01 119.33 230.19 134.2 223.82 136.09 214.81 130.3 202.33"/><line class="cls-1" x1="127.94" y1="219.58" x2="134.2" y2="223.82"/><line class="cls-1" x1="127.94" y1="219.58" x2="119.33" y2="225.01"/><line class="cls-1" x1="119.33" y1="225.01" x2="117.44" y2="224.02"/><line class="cls-1" x1="126.41" y1="210.86" x2="119.33" y2="164.89"/><polygon class="cls-1" points="137.68 164.89 148.46 167.35 161.33 167.35 169.3 165.4 163.8 159.62 154.51 156.45 142.11 159.74 137.68 164.89"/><polygon class="cls-1" points="146.5 164.14 146.43 158.53 146.94 158.45 142.11 159.74 137.68 164.89 148.46 167.35 149.5 167.35 146.5 164.14"/><polygon class="cls-1" points="163.8 159.62 163.06 159.37 163.8 161.16 161.77 166.46 160.12 167.35 161.33 167.35 169.3 165.4 163.8 159.62"/><polygon class="cls-1" points="155.91 162.67 153.62 163.28 152.27 161.47 153.73 159.74 155.98 160.47 155.91 162.67"/><polygon class="cls-1" points="127.71 153.06 146.24 141.66 140.93 150.34 127.71 153.06"/><polyline class="cls-1" points="146.24 141.66 168.68 140.47 140.93 150.34 169.93 146.45"/><polyline class="cls-1" points="168.68 140.47 169.93 146.45 188.16 151.16 169.3 140.47"/><polyline class="cls-1" points="110.73 256.48 120.65 254.53 145.56 261.26 129.98 274.72 119.7 276.29 110.73 275.53"/><line class="cls-1" x1="110.73" y1="262.67" x2="145.56" y2="261.26"/><polyline class="cls-1" points="110.73 229.62 119.33 230.19 117.44 234.51 134.2 223.82"/><line class="cls-1" x1="110.73" y1="229.62" x2="110.73" y2="226.86"/><line class="cls-1" x1="117.44" y1="234.51" x2="120.65" y2="254.53"/><line class="cls-1" x1="110.73" y1="229.62" x2="110.73" y2="256.48"/><polyline class="cls-1" points="110.73 317.39 122.87 317.39 140.87 308.74 173.81 268.04 192.06 222.3 198.19 165.75 190.64 122.08"/><line class="cls-1" x1="123.64" y1="317.02" x2="152.99" y2="293.77"/><line class="cls-1" x1="145.35" y1="299.64" x2="150.43" y2="273.41"/><line class="cls-1" x1="150.43" y1="273.41" x2="181.1" y2="249.77"/><line class="cls-1" x1="164.71" y1="262.41" x2="192.06" y2="222.3"/><line class="cls-1" x1="110.73" y1="314.44" x2="132.01" y2="310.39"/><line class="cls-1" x1="137.68" y1="164.89" x2="131.84" y2="170.04"/><line class="cls-1" x1="131.84" y1="170.04" x2="148.46" y2="167.35"/><line class="cls-1" x1="175.76" y1="165.81" x2="164.71" y2="157.59"/><line class="cls-1" x1="164.71" y1="157.59" x2="155.43" y2="154.9"/><line class="cls-1" x1="155.43" y1="154.9" x2="140.93" y2="158.45"/><polyline class="cls-1" points="140.93 158.45 131.84 170.04 156.99 172 175.76 165.81 161.33 167.35"/><line class="cls-1" x1="126.41" y1="158.45" x2="140.93" y2="150.34"/><line class="cls-1" x1="127.21" y1="167.46" x2="142.64" y2="153.06"/><line class="cls-1" x1="142.64" y1="153.06" x2="166.2" y2="151.7"/><line class="cls-1" x1="166.2" y1="151.7" x2="178.38" y2="165.22"/><line class="cls-1" x1="127.21" y1="167.46" x2="131.84" y2="170.04"/><line class="cls-1" x1="142.64" y1="153.06" x2="140.93" y2="158.45"/><line class="cls-1" x1="166.2" y1="151.7" x2="160.77" y2="156.45"/><line class="cls-1" x1="110.73" y1="160.11" x2="127.71" y2="153.06"/><line class="cls-1" x1="110.73" y1="278.17" x2="118.38" y2="278.5"/><line class="cls-1" x1="118.38" y1="278.5" x2="129.98" y2="274.72"/><line class="cls-1" x1="118.38" y1="278.5" x2="134.2" y2="281.88"/><line class="cls-1" x1="134.2" y1="281.88" x2="141.64" y2="302.76"/><line class="cls-1" x1="134.2" y1="281.88" x2="150.43" y2="273.41"/><line class="cls-1" x1="145.35" y1="299.64" x2="164.71" y2="262.41"/><line class="cls-1" x1="178.38" y1="165.22" x2="182.49" y2="168.75"/><line class="cls-1" x1="156.99" y1="171.99" x2="182.49" y2="168.75"/><line class="cls-1" x1="127.21" y1="167.46" x2="140.15" y2="187.13"/><line class="cls-1" x1="140.15" y1="187.13" x2="153.49" y2="194.95"/><line class="cls-1" x1="153.49" y1="194.95" x2="137.13" y2="194.95"/><line class="cls-1" x1="140.15" y1="187.13" x2="182.49" y2="168.75"/><line class="cls-1" x1="140.15" y1="187.13" x2="132.47" y2="207"/><line class="cls-1" x1="122.87" y1="231.6" x2="147.89" y2="246.37"/><line class="cls-1" x1="147.89" y1="246.37" x2="134.2" y2="223.82"/><line class="cls-1" x1="147.89" y1="246.37" x2="145.56" y2="261.26"/><line class="cls-1" x1="145.56" y1="261.26" x2="164.71" y2="262.41"/><line class="cls-1" x1="137.13" y1="194.95" x2="127.21" y2="167.46"/><line class="cls-1" x1="153.49" y1="194.95" x2="190.11" y2="187.13"/><line class="cls-1" x1="190.11" y1="187.13" x2="182.49" y2="168.75"/><line class="cls-1" x1="182.49" y1="168.75" x2="153.49" y2="194.95"/><line class="cls-1" x1="198.2" y1="165.75" x2="214.49" y2="161.51"/><line class="cls-1" x1="214.49" y1="161.51" x2="221.1" y2="168.7"/><line class="cls-1" x1="221.1" y1="168.7" x2="198.2" y2="165.75"/><line class="cls-1" x1="196.05" y1="185.48" x2="214.49" y2="167.85"/><line class="cls-1" x1="221.1" y1="168.7" x2="221.1" y2="176.67"/><line class="cls-1" x1="221.1" y1="176.67" x2="201.97" y2="224.02"/><line class="cls-1" x1="201.97" y1="224.02" x2="187.75" y2="233.1"/><line class="cls-1" x1="201.97" y1="224.02" x2="189.69" y2="228.24"/><line class="cls-1" x1="202.87" y1="178.96" x2="200.56" y2="209.6"/><line class="cls-1" x1="200.56" y1="209.6" x2="214.49" y2="167.85"/><line class="cls-1" x1="198.2" y1="165.75" x2="199.17" y2="182.5"/><line class="cls-1" x1="199.17" y1="182.5" x2="192.06" y2="222.3"/><line class="cls-1" x1="196.05" y1="199.94" x2="205.27" y2="216.55"/><line class="cls-1" x1="193.08" y1="216.55" x2="201.97" y2="224.02"/><line class="cls-1" x1="190.11" y1="187.13" x2="185.71" y2="231.6"/><polyline class="cls-1" points="190.11 187.13 198.19 165.75 211.54 110.4 200.66 66.99 171.56 19.11 134.64 1.49 89.61 0.35 43.07 17.5 15.79 66.56 7.81 113.23 23.26 165.75 31.34 187.13"/><line class="cls-1" x1="134.2" y1="223.82" x2="185.71" y2="231.6"/><line class="cls-1" x1="182.49" y1="188.76" x2="175.76" y2="230.19"/><line class="cls-1" x1="175.76" y1="230.19" x2="158.76" y2="261.96"/><line class="cls-1" x1="182.49" y1="188.76" x2="182.49" y2="168.75"/><line class="cls-1" x1="158.76" y1="261.96" x2="134.2" y2="281.88"/><polygon class="cls-1" points="110.73 226.86 93.51 219.58 95.05 210.86 110.73 206.24 110.73 226.86"/><polyline class="cls-1" points="110.73 206.24 110.73 160.11 102.12 164.89 91.15 202.33 95.05 210.86"/><polygon class="cls-1" points="102.12 164.89 95.05 158.45 91.15 202.33 102.12 164.89"/><polyline class="cls-1" points="102.12 225.01 102.12 230.19 87.25 223.82 85.36 214.81 91.15 202.33"/><line class="cls-1" x1="93.51" y1="219.58" x2="87.25" y2="223.82"/><line class="cls-1" x1="93.51" y1="219.58" x2="102.12" y2="225.01"/><line class="cls-1" x1="102.12" y1="225.01" x2="104.02" y2="224.02"/><line class="cls-1" x1="95.05" y1="210.86" x2="102.12" y2="164.89"/><polygon class="cls-1" points="83.77 164.89 72.99 167.35 60.13 167.35 52.16 165.4 57.66 159.62 66.94 156.45 79.34 159.74 83.77 164.89"/><polygon class="cls-1" points="74.95 164.14 75.02 158.53 74.51 158.45 79.34 159.74 83.77 164.89 72.99 167.35 71.95 167.35 74.95 164.14"/><polygon class="cls-1" points="57.66 159.62 58.39 159.37 57.66 161.16 59.68 166.46 61.33 167.35 60.13 167.35 52.16 165.4 57.66 159.62"/><polygon class="cls-1" points="65.54 162.67 67.83 163.28 69.18 161.47 67.72 159.74 65.47 160.47 65.54 162.67"/><polygon class="cls-1" points="93.74 153.06 75.21 141.66 80.52 150.34 93.74 153.06"/><polyline class="cls-1" points="75.21 141.66 52.77 140.47 80.52 150.34 51.52 146.45"/><polyline class="cls-1" points="52.77 140.47 51.52 146.45 33.29 151.16 52.16 140.47"/><polyline class="cls-1" points="110.73 256.48 100.8 254.53 75.89 261.26 91.47 274.72 101.75 276.29 110.73 275.53"/><line class="cls-1" x1="110.73" y1="262.67" x2="75.89" y2="261.26"/><line class="cls-1" x1="110.73" y1="229.62" x2="110.73" y2="226.86"/><line class="cls-1" x1="104.02" y1="234.51" x2="100.8" y2="254.53"/><line class="cls-1" x1="110.73" y1="229.62" x2="110.73" y2="256.48"/><polyline class="cls-1" points="110.73 317.39 98.58 317.39 80.58 308.74 47.64 268.04 29.4 222.3 23.26 165.75 30.81 122.08"/><line class="cls-1" x1="97.81" y1="317.02" x2="68.47" y2="293.77"/><line class="cls-1" x1="76.11" y1="299.64" x2="71.02" y2="273.41"/><line class="cls-1" x1="71.02" y1="273.41" x2="40.35" y2="249.77"/><line class="cls-1" x1="56.74" y1="262.41" x2="29.4" y2="222.3"/><line class="cls-1" x1="110.73" y1="314.44" x2="89.44" y2="310.39"/><line class="cls-1" x1="83.77" y1="164.89" x2="89.61" y2="170.04"/><line class="cls-1" x1="89.61" y1="170.04" x2="72.99" y2="167.35"/><line class="cls-1" x1="45.69" y1="165.81" x2="56.74" y2="157.59"/><line class="cls-1" x1="56.74" y1="157.59" x2="66.02" y2="154.9"/><line class="cls-1" x1="66.02" y1="154.9" x2="80.52" y2="158.45"/><polyline class="cls-1" points="80.52 158.45 89.61 170.04 64.46 172 45.69 165.81 60.13 167.35"/><line class="cls-1" x1="95.05" y1="158.45" x2="80.52" y2="150.34"/><line class="cls-1" x1="94.25" y1="167.46" x2="78.81" y2="153.06"/><line class="cls-1" x1="78.81" y1="153.06" x2="55.25" y2="151.7"/><line class="cls-1" x1="55.25" y1="151.7" x2="43.07" y2="165.22"/><line class="cls-1" x1="94.25" y1="167.46" x2="89.61" y2="170.04"/><line class="cls-1" x1="78.81" y1="153.06" x2="80.52" y2="158.45"/><line class="cls-1" x1="55.25" y1="151.7" x2="60.68" y2="156.45"/><line class="cls-1" x1="110.73" y1="160.11" x2="93.74" y2="153.06"/><line class="cls-1" x1="110.73" y1="278.17" x2="103.07" y2="278.5"/><line class="cls-1" x1="103.07" y1="278.5" x2="91.47" y2="274.72"/><line class="cls-1" x1="103.07" y1="278.5" x2="87.25" y2="281.88"/><line class="cls-1" x1="87.25" y1="281.88" x2="79.81" y2="302.76"/><line class="cls-1" x1="87.25" y1="281.88" x2="71.02" y2="273.41"/><line class="cls-1" x1="76.11" y1="299.64" x2="56.74" y2="262.41"/><line class="cls-1" x1="43.07" y1="165.22" x2="38.96" y2="168.75"/><line class="cls-1" x1="64.46" y1="171.99" x2="38.96" y2="168.75"/><polyline class="cls-1" points="87.25 223.82 104.02 234.51 102.12 230.19 110.73 229.62"/><line class="cls-1" x1="94.25" y1="167.46" x2="81.3" y2="187.13"/><line class="cls-1" x1="81.3" y1="187.13" x2="67.96" y2="194.95"/><line class="cls-1" x1="67.96" y1="194.95" x2="84.32" y2="194.95"/><line class="cls-1" x1="81.3" y1="187.13" x2="38.96" y2="168.75"/><line class="cls-1" x1="81.3" y1="187.13" x2="88.98" y2="207"/><line class="cls-1" x1="98.58" y1="231.6" x2="73.56" y2="246.37"/><line class="cls-1" x1="73.56" y1="246.37" x2="87.25" y2="223.82"/><line class="cls-1" x1="73.56" y1="246.37" x2="75.89" y2="261.26"/><line class="cls-1" x1="75.89" y1="261.26" x2="56.74" y2="262.41"/><line class="cls-1" x1="84.32" y1="194.95" x2="94.25" y2="167.46"/><line class="cls-1" x1="67.96" y1="194.95" x2="31.34" y2="187.13"/><line class="cls-1" x1="31.34" y1="187.13" x2="38.96" y2="168.75"/><line class="cls-1" x1="38.96" y1="168.75" x2="67.96" y2="194.95"/><line class="cls-1" x1="23.26" y1="165.75" x2="6.96" y2="161.51"/><line class="cls-1" x1="6.96" y1="161.51" x2="0.35" y2="168.7"/><line class="cls-1" x1="0.35" y1="168.7" x2="23.26" y2="165.75"/><line class="cls-1" x1="25.4" y1="185.48" x2="6.96" y2="167.85"/><line class="cls-1" x1="0.35" y1="168.7" x2="0.35" y2="176.67"/><line class="cls-1" x1="0.35" y1="176.67" x2="19.48" y2="224.02"/><line class="cls-1" x1="19.48" y1="224.02" x2="33.7" y2="233.1"/><line class="cls-1" x1="19.48" y1="224.02" x2="31.77" y2="228.24"/><line class="cls-1" x1="18.58" y1="178.96" x2="18.58" y2="212.22"/><line class="cls-1" x1="18.58" y1="196.25" x2="6.96" y2="167.85"/><line class="cls-1" x1="23.26" y1="165.75" x2="22.28" y2="182.5"/><line class="cls-1" x1="22.28" y1="182.5" x2="29.4" y2="222.3"/><line class="cls-1" x1="25.4" y1="199.94" x2="16.18" y2="216.55"/><line class="cls-1" x1="28.37" y1="216.55" x2="19.48" y2="224.02"/><line class="cls-1" x1="31.34" y1="187.13" x2="35.74" y2="231.6"/><polyline class="cls-1" points="27.62 177.3 30.81 122.08 45.69 90.87 62.65 78.93 110.73 78.93 148.46 73.5 179.65 93.69 190.64 122.08 193.83 177.3"/><line class="cls-1" x1="87.25" y1="223.82" x2="35.74" y2="231.6"/><line class="cls-1" x1="38.96" y1="188.76" x2="45.69" y2="230.19"/><line class="cls-1" x1="45.69" y1="230.19" x2="62.69" y2="261.96"/><line class="cls-1" x1="38.96" y1="188.76" x2="38.96" y2="168.75"/><line class="cls-1" x1="62.69" y1="261.96" x2="87.25" y2="281.88"/><line class="cls-1" x1="134.2" y1="281.88" x2="110.73" y2="314.44"/><line class="cls-1" x1="110.73" y1="314.44" x2="87.25" y2="281.88"/><line class="cls-1" x1="110.73" y1="275.53" x2="110.73" y2="278.17"/><line class="cls-1" x1="169.93" y1="146.45" x2="166.2" y2="151.7"/><line class="cls-1" x1="187.46" y1="150.76" x2="192.43" y2="153.06"/><line class="cls-1" x1="166.2" y1="151.7" x2="193.11" y2="164.89"/><line class="cls-1" x1="51.52" y1="146.54" x2="55.25" y2="151.79"/><line class="cls-1" x1="33.99" y1="150.85" x2="29.02" y2="153.15"/><line class="cls-1" x1="55.25" y1="151.79" x2="28.34" y2="164.97"/><line class="cls-1" x1="100.8" y1="254.53" x2="103.07" y2="262.36"/><line class="cls-1" x1="120.65" y1="254.53" x2="118.38" y2="262.67"/><line class="cls-1" x1="75.89" y1="261.26" x2="103.07" y2="267.39"/><line class="cls-1" x1="103.07" y1="267.39" x2="117.44" y2="267.39"/><line class="cls-1" x1="117.44" y1="267.39" x2="145.56" y2="261.26"/><line class="cls-1" x1="103.07" y1="262.36" x2="117.44" y2="267.39"/><polyline class="cls-1" points="148.46 73.5 140.15 33.3 62.65 78.93 94.25 40.62"/><line class="cls-1" x1="94.25" y1="40.62" x2="140.15" y2="33.3"/><line class="cls-1" x1="140.15" y1="33.3" x2="161.32" y2="51.05"/><line class="cls-1" x1="161.32" y1="51.05" x2="179.65" y2="93.69"/><line class="cls-1" x1="7.81" y1="113.23" x2="26.96" y2="144.33"/><line class="cls-1" x1="8.7" y1="108.04" x2="35.74" y2="111.75"/><line class="cls-1" x1="15.89" y1="66.67" x2="35.74" y2="111.75"/><line class="cls-1" x1="89.61" y1="0.35" x2="119.35" y2="28.87"/><line class="cls-1" x1="140.15" y1="33.3" x2="172.29" y2="19.46"/><line class="cls-1" x1="172.29" y1="19.46" x2="175.76" y2="45.5"/><line class="cls-1" x1="175.76" y1="45.5" x2="200.66" y2="66.99"/><line class="cls-1" x1="15.89" y1="66.67" x2="89.61" y2="0.35"/><line class="cls-1" x1="37.66" y1="47.08" x2="35.74" y2="111.75"/><line class="cls-1" x1="47.94" y1="38.8" x2="76.11" y2="62.62"/><line class="cls-1" x1="79.57" y1="9.62" x2="94.25" y2="40.62"/><line class="cls-1" x1="119.35" y1="28.87" x2="94.25" y2="40.62"/><line class="cls-1" x1="119.35" y1="28.87" x2="140.15" y2="33.3"/><line class="cls-1" x1="172.29" y1="19.46" x2="162.05" y2="52.76"/><line class="cls-1" x1="175.76" y1="45.5" x2="179.65" y2="93.69"/><line class="cls-1" x1="200.66" y1="66.99" x2="179.65" y2="93.69"/><line class="cls-1" x1="47.94" y1="38.8" x2="94.25" y2="40.62"/><line class="cls-1" x1="134.64" y1="1.49" x2="119.35" y2="28.87"/><line class="cls-1" x1="94.25" y1="40.62" x2="101.39" y2="11.64"/><line class="cls-1" x1="128.16" y1="13.1" x2="172.29" y2="19.46"/><line class="cls-1" x1="43.07" y1="17.5" x2="37.66" y2="47.08"/><line class="cls-1" x1="200.66" y1="66.99" x2="190.64" y2="122.08"/><line class="cls-1" x1="211.54" y1="110.4" x2="190.64" y2="122.08"/><line class="cls-1" x1="200.47" y1="116.59" x2="197.83" y2="163.63"/><line class="cls-1" x1="76.11" y1="62.62" x2="36.71" y2="78.93"/><line class="cls-1" x1="47.94" y1="38.8" x2="36.71" y2="78.93"/><line class="cls-1" x1="8.7" y1="108.04" x2="25.4" y2="89.21"/><line class="cls-1" x1="101.39" y1="11.64" x2="134.64" y2="1.49"/><line class="cls-1" x1="43.07" y1="17.5" x2="64.46" y2="22.97"/><line class="cls-1" x1="179.65" y1="93.69" x2="196.62" y2="89.21"/><line class="cls-1" x1="211.54" y1="110.4" x2="193.83" y2="104.55"/><line class="cls-1" x1="56.74" y1="83.09" x2="67.32" y2="109.89"/><line class="cls-1" x1="67.32" y1="109.89" x2="29.02" y2="153.15"/><line class="cls-1" x1="155.13" y1="79.41" x2="149.5" y2="107.48"/><line class="cls-1" x1="149.5" y1="107.48" x2="192.43" y2="153.06"/><line class="cls-1" x1="67.32" y1="109.89" x2="155.13" y2="79.41"/><line class="cls-1" x1="67.32" y1="109.89" x2="110.73" y2="160.11"/><line class="cls-1" x1="111.23" y1="133.79" x2="149.5" y2="107.48"/><line class="cls-1" x1="149.5" y1="107.48" x2="110.73" y2="160.11"/><line class="cls-1" x1="149.5" y1="107.48" x2="146.24" y2="141.66"/><line class="cls-1" x1="111.23" y1="133.79" x2="67.32" y2="109.89"/><polyline class="cls-1" points="43.07 256.48 45.69 292.32 38.96 310.39 60.13 350.58 120.51 361.97 175.76 319.97 175.76 289.37 172.29 284.49 171.8 270.53"/><line class="cls-1" x1="45.69" y1="292.32" x2="86.07" y2="355.47"/><line class="cls-1" x1="172.29" y1="284.48" x2="142.32" y2="345.4"/><line class="cls-1" x1="172.29" y1="284.48" x2="163.58" y2="329.23"/><line class="cls-1" x1="45.15" y1="293.77" x2="70.31" y2="352.5"/><line class="cls-1" x1="47.91" y1="327.37" x2="62.25" y2="333.7"/><line class="cls-1" x1="80.58" y1="308.74" x2="93.31" y2="332.51"/><line class="cls-1" x1="93.31" y1="332.51" x2="129.59" y2="332.51"/><line class="cls-1" x1="140.87" y1="308.74" x2="129.59" y2="332.51"/><line class="cls-1" x1="93.31" y1="332.51" x2="99.14" y2="357.94"/><line class="cls-1" x1="129.59" y1="332.51" x2="124.18" y2="359.19"/><polyline class="cls-1" points="172.29 284.49 181.1 286.52 183.91 289.37 183.91 325.51 123.64 368.97 54.19 356.93 29.4 312.41 36.55 295.23 45.15 292.32"/><polyline class="cls-1" points="183.91 325.51 178.53 331.41 121.37 373.23 55.65 361.79 34.28 323.9 29.4 312.41"/><line class="cls-1" x1="123.64" y1="368.97" x2="121.37" y2="373.22"/><line class="cls-1" x1="54.19" y1="356.93" x2="55.65" y2="361.79"/></g></g></svg>